<svg xmlns="http://www.w3.org/2000/svg" version="1.1" xmlns:xlink="http://www.w3.org/1999/xlink" width="1000" height="1000"><g clip-path="url(#SvgjsClipPath1003)"><rect width="1000" height="1000" fill="#ffffff"></rect><g transform="matrix(3.5,0,0,3.5,150,150)"><svg xmlns="http://www.w3.org/2000/svg" version="1.1" xmlns:xlink="http://www.w3.org/1999/xlink" width="200" height="200"><svg xmlns="http://www.w3.org/2000/svg" version="1.1" xmlns:xlink="http://www.w3.org/1999/xlink" viewBox="0 0 200 200"><rect width="200" height="200" fill="url('#gradient')"></rect><defs><linearGradient id="gradient" gradientTransform="rotate(45 0.5 0.5)"><stop offset="0%" stop-color="#ffffff"></stop><stop offset="100%" stop-color="#b5b4b5"></stop></linearGradient><clipPath id="SvgjsClipPath1003"><rect width="1000" height="1000" x="0" y="0" rx="350" ry="350"></rect></clipPath></defs><g><g fill="#c52727" transform="matrix(4.636981132075472,0,0,4.636981132075472,5.03122834178636,132.97319241289824)" stroke="#ffffff" stroke-width="0.7"><path d="M12.95-14.22L12.95 0L9.54 0L4.50-8.85L4.50 0L1.07 0L1.07-14.22L4.50-14.22L9.53-5.37L9.53-14.22L12.95-14.22ZM23.21-4.81L26.62-4.81Q26.55-3.33 25.82-2.19Q25.09-1.05 23.76-0.43Q22.44 0.20 20.74 0.20L20.74 0.20Q17.94 0.20 16.33-1.63Q14.72-3.46 14.72-6.79L14.72-6.79L14.72-7.49Q14.72-9.58 15.44-11.15Q16.17-12.71 17.54-13.57Q18.91-14.42 20.70-14.42L20.70-14.42Q23.29-14.42 24.86-13.06Q26.44-11.70 26.65-9.31L26.65-9.31L23.23-9.31Q23.19-10.61 22.58-11.17Q21.96-11.74 20.70-11.74L20.70-11.74Q19.42-11.74 18.83-10.78Q18.23-9.82 18.20-7.72L18.20-7.72L18.20-6.72Q18.20-4.44 18.77-3.47Q19.35-2.49 20.74-2.49L20.74-2.49Q21.92-2.49 22.55-3.05Q23.17-3.60 23.21-4.81L23.21-4.81ZM31.22-14.22L33.54-9.49L35.87-14.22L39.79-14.22L35.81-7.17L39.89 0L35.94 0L33.54-4.81L31.15 0L27.21 0L31.28-7.17L27.31-14.22L31.22-14.22Z"></path></g></g></svg></svg></g></g></svg>